#N canvas 703 115 525 244 10;
#X declare -lib mrpeach;
#X obj 258 156 -~;
#X obj 272 86 phasor~;
#X obj 257 61 phasor~;
#X obj 272 111 wrap~;
#X obj 244 213 *~;
#X obj 242 339 dac~;
#X obj 258 188 +~ 0.5;
#X obj 400 154 -~;
#X obj 415 86 phasor~;
#X obj 401 61 phasor~;
#X obj 415 113 wrap~;
#X obj 401 222 +~ 0.5;
#X obj 669 52 -~;
#X obj 684 6 phasor~;
#X obj 668 -19 phasor~;
#X obj 683 28 wrap~;
#X obj 608 98 *~;
#X obj 610 180 dac~;
#X msg 739 -11 1.67;
#X obj 669 82 +~ 0.5;
#X obj 739 82 -~;
#X obj 786 39 phasor~;
#X obj 738 59 phasor~;
#X obj 785 66 wrap~;
#X obj 739 108 +~ 0.5;
#X obj 609 124 *~;
#X obj 607 75 osc~ 4800;
#X msg 739 -36 30;
#X msg 738 21 8;
#X obj 609 145 *~ 0.5;
#X obj 919 -14 *~;
#X obj 919 64 dac~;
#X obj 918 10 *~;
#X obj 919 -35 osc~ 4800;
#X obj 993 -7 +~ 1;
#X obj 999 14 *~ 0.5;
#X obj 993 -41 osc~ 30;
#X obj 1006 79 +~ 1;
#X obj 1012 100 *~ 0.5;
#X obj 998 41 osc~ 8;
#X obj 919 34 *~ 1;
#X obj 180 506 netreceive;
#X text 625 -42 B. Webb \, 1995;
#X text 172 527 Check netreceive to connect Pd with Ogre. -Speacker
side (left / right) -Volume of the sound;
#X text 550 528 square waves addictive (check for it to improve the
cricket sound).;
#X msg 786 13 1.67;
#X obj 550 509 square~;
#X obj 25 -53 import mrpeach;
#X obj 25 -32 netreceive 1236;
#X obj 129 -31 print tcp;
#X floatatom 67 50 5 0 0 0 - - -;
#X floatatom 25 51 5 0 0 0 - - -;
#X obj 25 260 / 127;
#X obj 244 238 *~;
#X obj 244 -6 osc~ 5000;
#X msg 330 -9 25;
#X msg 366 -10 0;
#X msg 404 -10 1.67;
#X msg 451 -9 3;
#X obj 392 -49 bng 15 250 50 1 empty empty empty 17 7 0 10 -262144
-1 -1;
#X text 170 -61 Based on: Hartmut Bohm \, 1991;
#X obj 513 462 -;
#X obj 15 462 -;
#X obj 513 -61 -;
#X obj 14 -77 -;
#X obj 243 277 *~;
#X obj 28 235 hsl 128 15 0 127 0 0 empty empty empty -2 -8 0 10 -262144
-1 -1 0 1;
#X obj 25 76 +;
#X floatatom 25 105 5 0 0 0 - - -;
#X obj 25 133 / 2;
#X floatatom 25 162 5 0 0 0 - - -;
#X obj 25 191 / 9;
#X symbolatom 88 22 2 0 0 0 - - -;
#X floatatom 109 51 5 0 0 0 - - -;
#X text 30 36 x;
#X obj 313 275 -;
#X obj 513 258 -;
#X obj 313 445 -;
#X text 347 277 play wav file...;
#X msg 462 302 start;
#X msg 462 326 stop;
#X obj 325 339 readsf~ 2;
#X obj 425 369 bng 15 250 50 0 empty empty empty 17 7 0 10 -262144
-1 -1;
#X obj 326 401 dac~;
#X obj 902 -55 *~;
#X obj 1076 172 *~;
#X obj 901 155 *~;
#X obj 1076 -71 *~;
#X obj 591 -46 *~;
#X obj 842 219 *~;
#X obj 592 203 *~;
#X obj 843 -62 *~;
#X text 921 126 Our trial with sine-waves instead of square wave.;
#X msg 325 296 open cricket1.wav;
#X obj 615 303 vsl 15 128 0 127 0 0 empty empty empty 0 -9 0 10 -262144
-1 -1 0 1;
#X obj 648 301 vsl 15 128 0 127 0 0 empty empty empty 0 -9 0 10 -262144
-1 -1 0 1;
#X obj 467 279 tgl 15 0 empty empty empty 17 7 0 10 -262144 -1 -1 0
1;
#X obj 326 370 *~ o.7;
#X obj 371 370 *~ o.7;
#X obj 161 184 expr;
#X floatatom 46 434 5 0 0 0 - - -;
#X floatatom 131 436 5 0 0 0 - - -;
#X floatatom 216 434 5 0 0 0 - - -;
#X floatatom 49 348 5 0 0 0 - - -;
#X obj 49 380 expr $f1 \; if ($f1 > 9 \, $f1 * 1 \, 0) \; if ($f1 <=
9 \, $f1 * 1 \, 0);
#X obj 119 475 hsl 128 15 0 127 0 0 empty empty empty -2 -8 0 10 -262144
-1 -1 0 1;
#X obj 266 478 hsl 128 15 0 127 0 0 empty empty empty -2 -8 0 10 -262144
-1 -1 0 1;
#X text 75 35 z;
#X symbolatom 130 23 2 0 0 0 - - -;
#X symbolatom 46 23 2 0 0 0 - - -;
#X obj 25 -2 unpack f s f s f s;
#X connect 0 0 6 0;
#X connect 1 0 3 0;
#X connect 2 0 0 0;
#X connect 3 0 0 1;
#X connect 4 0 53 0;
#X connect 6 0 4 1;
#X connect 7 0 11 0;
#X connect 8 0 10 0;
#X connect 9 0 7 0;
#X connect 10 0 7 1;
#X connect 11 0 53 1;
#X connect 12 0 19 0;
#X connect 13 0 15 0;
#X connect 14 0 12 0;
#X connect 15 0 12 1;
#X connect 16 0 25 0;
#X connect 18 0 13 1;
#X connect 19 0 16 1;
#X connect 20 0 24 0;
#X connect 21 0 23 0;
#X connect 22 0 20 0;
#X connect 23 0 20 1;
#X connect 24 0 25 1;
#X connect 25 0 29 0;
#X connect 26 0 16 0;
#X connect 27 0 14 0;
#X connect 27 0 13 0;
#X connect 27 0 18 0;
#X connect 28 0 22 0;
#X connect 28 0 21 0;
#X connect 30 0 32 0;
#X connect 32 0 40 0;
#X connect 33 0 30 0;
#X connect 34 0 35 0;
#X connect 35 0 30 1;
#X connect 36 0 34 0;
#X connect 37 0 38 0;
#X connect 38 0 32 1;
#X connect 39 0 37 0;
#X connect 45 0 22 0;
#X connect 45 0 21 0;
#X connect 48 0 110 0;
#X connect 50 0 67 1;
#X connect 51 0 67 0;
#X connect 52 0 65 1;
#X connect 53 0 65 0;
#X connect 54 0 4 0;
#X connect 55 0 2 0;
#X connect 55 0 1 0;
#X connect 56 0 2 1;
#X connect 56 0 9 1;
#X connect 57 0 1 1;
#X connect 57 0 8 1;
#X connect 58 0 9 0;
#X connect 58 0 8 0;
#X connect 59 0 55 0;
#X connect 59 0 56 0;
#X connect 59 0 57 0;
#X connect 59 0 58 0;
#X connect 63 0 76 0;
#X connect 64 0 62 0;
#X connect 64 0 63 0;
#X connect 65 0 5 0;
#X connect 65 0 5 1;
#X connect 66 0 52 0;
#X connect 67 0 68 0;
#X connect 68 0 69 0;
#X connect 69 0 70 0;
#X connect 70 0 71 0;
#X connect 71 0 66 0;
#X connect 75 0 77 0;
#X connect 76 0 61 0;
#X connect 76 0 75 1;
#X connect 77 0 61 0;
#X connect 77 0 62 1;
#X connect 79 0 81 0;
#X connect 80 0 81 0;
#X connect 81 0 97 0;
#X connect 81 1 98 0;
#X connect 81 2 82 0;
#X connect 84 0 86 0;
#X connect 86 0 85 0;
#X connect 87 0 85 0;
#X connect 87 0 84 1;
#X connect 88 0 90 0;
#X connect 90 0 89 0;
#X connect 91 0 89 0;
#X connect 91 0 88 1;
#X connect 93 0 81 0;
#X connect 96 0 93 0;
#X connect 96 0 79 0;
#X connect 101 0 105 0;
#X connect 102 0 106 0;
#X connect 103 0 104 0;
#X connect 104 0 100 0;
#X connect 104 1 101 0;
#X connect 104 2 102 0;
#X connect 110 0 51 0;
#X connect 110 1 109 0;
#X connect 110 2 50 0;
#X connect 110 3 72 0;
#X connect 110 4 73 0;
#X connect 110 5 108 0;
